name C:/MyDriveSym/Projects/mobilecap/Data\Session20210830_0001\mocap\ForceDataProcessed\DJAsym3_forces.mot
datacolumns 28
datarows 20
range 1.95700000 1.96650000
endheader 
time	R_ground_force_vx	R_ground_force_vy	R_ground_force_vz	R_ground_force_px	R_ground_force_py	R_ground_force_pz	R_ground_torque_x	R_ground_torque_y	R_ground_torque_z	L_ground_force_vx	L_ground_force_vy	L_ground_force_vz	L_ground_force_px	L_ground_force_py	L_ground_force_pz	L_ground_torque_x	L_ground_torque_y	L_ground_torque_z	3_ground_force_vx	3_ground_force_vy	3_ground_force_vz	3_ground_force_px	3_ground_force_py	3_ground_force_pz	3_ground_torque_x	3_ground_torque_y	3_ground_torque_z	
          1.95700000	          3.66893200	        265.96361800	         -4.92853600	         -0.08645300	          0.00600000	         -0.42503400	          0.00000000	         -1.12810300	          0.00000000	         17.50643000	        259.95941300	        -11.48739100	         -0.04149700	          0.00600000	         -0.77979500	          0.00000000	          0.14785200	          0.00000000	          0.00000000	          0.00000000	          0.00000000	          0.00000000	          0.00000000	          0.00000000	          0.00000000	          0.00000000	          0.00000000	
          1.95750000	          4.62061200	        257.74810400	         -4.09407700	         -0.08616000	          0.00600000	         -0.42485600	          0.00000000	         -1.12481200	          0.00000000	         19.21928200	        250.54033700	        -12.12793900	         -0.04092900	          0.00600000	         -0.77971000	          0.00000000	          0.19819500	          0.00000000	          0.00000000	          0.00000000	          0.00000000	          0.00000000	          0.00000000	          0.00000000	          0.00000000	          0.00000000	          0.00000000	
          1.95800000	          5.52252700	        249.51086200	         -3.28447100	         -0.08586200	          0.00600000	         -0.42467900	          0.00000000	         -1.11970000	          0.00000000	         20.84529300	        241.16833800	        -12.73141600	         -0.04033800	          0.00600000	         -0.77961300	          0.00000000	          0.24773600	          0.00000000	          0.00000000	          0.00000000	          0.00000000	          0.00000000	          0.00000000	          0.00000000	          0.00000000	          0.00000000	          0.00000000	
          1.95850000	          6.37375100	        241.25854600	         -2.50093900	         -0.08555900	          0.00600000	         -0.42450500	          0.00000000	         -1.11277900	          0.00000000	         22.37971800	        231.85304100	        -13.29560200	         -0.03972200	          0.00600000	         -0.77950500	          0.00000000	          0.29640300	          0.00000000	          0.00000000	          0.00000000	          0.00000000	          0.00000000	          0.00000000	          0.00000000	          0.00000000	          0.00000000	          0.00000000	
          1.95900000	          7.17353100	        232.99825100	         -1.74468900	         -0.08524900	          0.00600000	         -0.42433300	          0.00000000	         -1.10407300	          0.00000000	         23.81803800	        222.60417700	        -13.81837700	         -0.03907800	          0.00600000	         -0.77938400	          0.00000000	          0.34412800	          0.00000000	          0.00000000	          0.00000000	          0.00000000	          0.00000000	          0.00000000	          0.00000000	          0.00000000	          0.00000000	          0.00000000	
          1.95950000	          7.92124400	        224.73750200	         -1.01690600	         -0.08493300	          0.00600000	         -0.42416500	          0.00000000	         -1.09361900	          0.00000000	         25.15600200	        213.43156500	        -14.29775200	         -0.03840400	          0.00600000	         -0.77924800	          0.00000000	          0.39084800	          0.00000000	          0.00000000	          0.00000000	          0.00000000	          0.00000000	          0.00000000	          0.00000000	          0.00000000	          0.00000000	          0.00000000	
          1.96000000	          8.61634700	        216.48424200	         -0.31873600	         -0.08460800	          0.00600000	         -0.42400100	          0.00000000	         -1.08146700	          0.00000000	         26.38965400	        204.34508900	        -14.73188700	         -0.03769700	          0.00600000	         -0.77909700	          0.00000000	          0.43650600	          0.00000000	          0.00000000	          0.00000000	          0.00000000	          0.00000000	          0.00000000	          0.00000000	          0.00000000	          0.00000000	          0.00000000	
          1.96050000	          9.25835200	        208.24682800	          0.34871500	         -0.08427500	          0.00600000	         -0.42384200	          0.00000000	         -1.06767600	          0.00000000	         27.51536000	        195.35464000	        -15.11910700	         -0.03695300	          0.00600000	         -0.77892900	          0.00000000	          0.48105400	          0.00000000	          0.00000000	          0.00000000	          0.00000000	          0.00000000	          0.00000000	          0.00000000	          0.00000000	          0.00000000	          0.00000000	
          1.96100000	          9.84680600	        200.03403500	          0.98438000	         -0.08393200	          0.00600000	         -0.42368900	          0.00000000	         -1.05231600	          0.00000000	         28.52981400	        186.47005600	        -15.45791800	         -0.03616900	          0.00600000	         -0.77874100	          0.00000000	          0.52446800	          0.00000000	          0.00000000	          0.00000000	          0.00000000	          0.00000000	          0.00000000	          0.00000000	          0.00000000	          0.00000000	          0.00000000	
          1.96150000	         10.38128400	        191.85504300	          1.58724000	         -0.08357800	          0.00600000	         -0.42354300	          0.00000000	         -1.03546200	          0.00000000	         29.43004200	        177.70108000	        -15.74701400	         -0.03534100	          0.00600000	         -0.77853200	          0.00000000	          0.56675100	          0.00000000	          0.00000000	          0.00000000	          0.00000000	          0.00000000	          0.00000000	          0.00000000	          0.00000000	          0.00000000	          0.00000000	
          1.96200000	         10.86139600	        183.71940400	          2.15633200	         -0.08321100	          0.00600000	         -0.42340600	          0.00000000	         -1.01719600	          0.00000000	         30.21338000	        169.05732900	        -15.98528900	         -0.03446400	          0.00600000	         -0.77830000	          0.00000000	          0.60794800	          0.00000000	          0.00000000	          0.00000000	          0.00000000	          0.00000000	          0.00000000	          0.00000000	          0.00000000	          0.00000000	          0.00000000	
          1.96250000	         11.28681600	        175.63701600	          2.69075900	         -0.08283000	          0.00600000	         -0.42327700	          0.00000000	         -0.99760600	          0.00000000	         30.87746500	        160.54830000	        -16.17184300	         -0.03353300	          0.00600000	         -0.77804000	          0.00000000	          0.64814100	          0.00000000	          0.00000000	          0.00000000	          0.00000000	          0.00000000	          0.00000000	          0.00000000	          0.00000000	          0.00000000	          0.00000000	
          1.96300000	         11.65733500	        167.61808900	          3.18969100	         -0.08243400	          0.00600000	         -0.42315900	          0.00000000	         -0.97678400	          0.00000000	         31.42024000	        152.18336100	        -16.30598100	         -0.03254300	          0.00600000	         -0.77775000	          0.00000000	          0.68744100	          0.00000000	          0.00000000	          0.00000000	          0.00000000	          0.00000000	          0.00000000	          0.00000000	          0.00000000	          0.00000000	          0.00000000	
          1.96350000	         11.97290400	        159.67309700	          3.65234200	         -0.08201900	          0.00600000	         -0.42305300	          0.00000000	         -0.95482400	          0.00000000	         31.83997700	        143.97173500	        -16.38720900	         -0.03148500	          0.00600000	         -0.77742500	          0.00000000	          0.72598200	          0.00000000	          0.00000000	          0.00000000	          0.00000000	          0.00000000	          0.00000000	          0.00000000	          0.00000000	          0.00000000	          0.00000000	
          1.96400000	         12.23366600	        151.81274200	          4.07796600	         -0.08158500	          0.00600000	         -0.42296000	          0.00000000	         -0.93182400	          0.00000000	         32.13533200	        135.92248000	        -16.41522700	         -0.03035100	          0.00600000	         -0.77706100	          0.00000000	          0.76391100	          0.00000000	          0.00000000	          0.00000000	          0.00000000	          0.00000000	          0.00000000	          0.00000000	          0.00000000	          0.00000000	          0.00000000	
          1.96450000	         12.43995200	        144.04790400	          4.46588100	         -0.08112700	          0.00600000	         -0.42288200	          0.00000000	         -0.90788700	          0.00000000	         32.30544100	        128.04448000	        -16.38992400	         -0.02913200	          0.00600000	         -0.77665200	          0.00000000	          0.80137300	          0.00000000	          0.00000000	          0.00000000	          0.00000000	          0.00000000	          0.00000000	          0.00000000	          0.00000000	          0.00000000	          0.00000000	
          1.96500000	         12.59226400	        136.38961400	          4.81552400	         -0.08064400	          0.00600000	         -0.42282100	          0.00000000	         -0.88312800	          0.00000000	         32.35002400	        120.34642900	        -16.31139100	         -0.02781600	          0.00600000	         -0.77619300	          0.00000000	          0.83850800	          0.00000000	          0.00000000	          0.00000000	          0.00000000	          0.00000000	          0.00000000	          0.00000000	          0.00000000	          0.00000000	          0.00000000	
          1.96550000	         12.69124700	        128.84902100	          5.12652000	         -0.08013000	          0.00600000	         -0.42278000	          0.00000000	         -0.85767200	          0.00000000	         32.26950800	        112.83678600	        -16.17994800	         -0.02638900	          0.00600000	         -0.77567600	          0.00000000	          0.87545100	          0.00000000	          0.00000000	          0.00000000	          0.00000000	          0.00000000	          0.00000000	          0.00000000	          0.00000000	          0.00000000	          0.00000000	
          1.96600000	         12.73769800	        121.43735300	          5.39873500	         -0.07958400	          0.00600000	         -0.42276200	          0.00000000	         -0.83165300	          0.00000000	         32.06511800	        105.52372300	        -15.99619600	         -0.02483500	          0.00600000	         -0.77509400	          0.00000000	          0.91233400	          0.00000000	          0.00000000	          0.00000000	          0.00000000	          0.00000000	          0.00000000	          0.00000000	          0.00000000	          0.00000000	          0.00000000	
          1.96650000	         12.73257900	        114.16582900	          5.63230100	         -0.07899800	          0.00600000	         -0.42276900	          0.00000000	         -0.80521400	          0.00000000	         31.73895700	         98.41506000	        -15.76105600	         -0.02313600	          0.00600000	         -0.77443800	          0.00000000	          0.94928900	          0.00000000	          0.00000000	          0.00000000	          0.00000000	          0.00000000	          0.00000000	          0.00000000	          0.00000000	          0.00000000	          0.00000000	
